<svg width="44" height="44" viewBox="0 0 44 44" fill="none" xmlns="http://www.w3.org/2000/svg">
<g clip-path="url(#clip0_1_893)">
<path d="M31.158 14.6573L30.6872 13.1257C30.0892 11.386 28.1775 10.4548 26.4173 11.0459C25.4271 11.3784 24.6495 12.147 24.3131 13.1257L23.8423 14.6573C23.4461 15.9489 23.363 17.3146 23.5996 18.6438C23.8154 19.7629 24.5342 20.7244 25.5532 21.2568L25.0259 32.9069C24.9553 33.5571 25.1687 34.2063 25.6126 34.6914C26.5671 35.7233 28.1874 35.7951 29.2315 34.8516C29.2879 34.8006 29.342 34.7472 29.3936 34.6914C29.8276 34.2201 30.0406 33.5899 29.9803 32.9554L29.4501 21.2553C30.4677 20.7227 31.1853 19.7618 31.4008 18.6438C31.6373 17.3146 31.5542 15.9489 31.158 14.6573ZM29.9561 18.3916C29.7973 19.1956 29.2176 19.8552 28.4344 20.1232C28.1372 20.2336 27.9457 20.5206 27.96 20.8342L28.5173 33.0699C28.543 33.3099 28.4628 33.5492 28.2973 33.7266C27.8557 34.1587 27.1446 34.1587 26.703 33.7266C26.5292 33.5349 26.4503 33.2769 26.4874 33.0221L27.0404 20.8342C27.0547 20.5206 26.8632 20.2336 26.5659 20.1232C25.7827 19.8552 25.203 19.1956 25.0442 18.3916C24.8481 17.288 24.9172 16.1543 25.2459 15.082L25.7167 13.5497C26.081 12.5762 27.1747 12.0789 28.1598 12.4389C28.6806 12.6293 29.091 13.0351 29.2836 13.5497L29.7544 15.082C30.0828 16.1544 30.1519 17.288 29.9561 18.3916Z" fill="#363853"/>
<path d="M19.8 10.8723C19.395 10.8723 19.0667 11.1969 19.0667 11.5971V17.8205L17.0815 19.7826C16.9347 19.9272 16.8566 20.1266 16.8667 20.3313L17.5083 33.0157C17.5236 33.2892 17.4232 33.5567 17.2311 33.7543C16.8297 34.1545 16.176 34.1574 15.7709 33.7606C15.7687 33.7585 15.7666 33.7563 15.7645 33.7543C15.5723 33.5567 15.472 33.2892 15.4873 33.0157L16.1333 20.3313C16.1436 20.1267 16.0658 19.9273 15.9192 19.7826L13.9333 17.8205V11.5971C13.9333 11.1969 13.605 10.8723 13.2 10.8723C12.795 10.8723 12.4667 11.1969 12.4667 11.5971V18.1205C12.4667 18.3128 12.544 18.4971 12.6815 18.633L14.6513 20.5806L14.0257 32.9454C13.9592 34.296 15.013 35.4443 16.3795 35.51C17.7459 35.5758 18.9077 34.5343 18.9743 33.1836C18.9782 33.1043 18.9782 33.0248 18.9743 32.9454L18.3487 20.5807L20.3185 18.6331C20.456 18.4972 20.5333 18.3129 20.5333 18.1206V11.5972C20.5333 11.1969 20.205 10.8723 19.8 10.8723Z" fill="#363853"/>
<path d="M15.4 10.8723C14.995 10.8723 14.6667 11.1969 14.6667 11.5971V17.3957C14.6667 17.796 14.995 18.1205 15.4 18.1205C15.805 18.1205 16.1333 17.796 16.1333 17.3957V11.5971C16.1333 11.1969 15.805 10.8723 15.4 10.8723Z" fill="#363853"/>
<path d="M17.6 10.8723C17.195 10.8723 16.8667 11.1969 16.8667 11.5971V17.3957C16.8667 17.796 17.195 18.1205 17.6 18.1205C18.005 18.1205 18.3333 17.796 18.3333 17.3957V11.5971C18.3333 11.1969 18.005 10.8723 17.6 10.8723Z" fill="#363853"/>
<path d="M22 0C9.84977 0 0 9.73546 0 21.7447C0 33.7539 9.84977 43.4894 22 43.4894C34.1502 43.4894 44 33.7539 44 21.7447C43.9863 9.74108 34.1446 0.0135904 22 0ZM22 42.0397C10.6597 42.0397 1.46667 32.9534 1.46667 21.7447C1.46667 10.536 10.6597 1.44965 22 1.44965C33.3403 1.44965 42.5333 10.536 42.5333 21.7447C42.5204 32.948 33.3349 42.027 22 42.0397Z" fill="#363853"/>
<path d="M24.3804 35.3511C24.3411 34.9525 23.9824 34.6609 23.5792 34.6998C23.5698 34.7007 23.5604 34.7018 23.5509 34.703L23.5539 34.7023C22.5214 34.8209 21.4784 34.8209 20.446 34.7023C20.0436 34.6556 19.6792 34.9404 19.632 35.3383C19.5848 35.7363 19.8727 36.0966 20.2751 36.1433C21.4201 36.2755 22.5768 36.2755 23.7218 36.1433C24.1248 36.1045 24.4197 35.7498 24.3804 35.3511Z" fill="#363853"/>
<path d="M33.2202 12.4046C32.9599 12.0979 32.4974 12.0577 32.1871 12.315C32.1861 12.3159 32.1851 12.3168 32.184 12.3176C31.8744 12.5756 31.835 13.0328 32.096 13.3389C36.5175 18.5268 36.1793 26.198 31.3179 30.9861C31.031 31.2687 31.0302 31.7278 31.3161 32.0114C31.602 32.295 32.0665 32.2958 32.3534 32.0132C37.756 26.6936 38.1327 18.1695 33.2202 12.4046Z" fill="#363853"/>
<path d="M17.0859 9.58157C17.0854 9.58157 17.085 9.58057 17.0845 9.58057C17.0838 9.58057 17.0831 9.58157 17.0822 9.58157H17.0859Z" fill="#363853"/>
<path d="M25.4592 7.65348C22.5932 6.97459 19.5875 7.15706 16.8271 8.17752C16.448 8.31841 16.2563 8.73645 16.3988 9.1111C16.5063 9.3935 16.7794 9.58042 17.0846 9.58069C17.1723 9.58024 17.2592 9.56438 17.3412 9.53367C19.827 8.61486 22.5337 8.45078 25.1145 9.06253C25.5082 9.15658 25.9045 8.91748 25.9996 8.52834C26.0948 8.1392 25.8529 7.74752 25.4592 7.65348Z" fill="#363853"/>
<path d="M12.6492 30.95C10.1771 28.5107 8.79153 25.1975 8.79996 21.7448C8.79272 18.9863 9.67675 16.2975 11.3234 14.0703C11.5667 13.7503 11.5016 13.296 11.1778 13.0554C10.854 12.8148 10.3943 12.8793 10.1509 13.1993C10.1466 13.205 10.1424 13.2107 10.1383 13.2165C5.89844 18.9777 6.52232 26.9301 11.6101 31.9764C11.8968 32.2599 12.3619 32.2601 12.6489 31.9767C12.9358 31.6933 12.936 31.2336 12.6492 30.95Z" fill="#363853"/>
</g>
<defs>
<clipPath id="clip0_1_893">
<rect width="44" height="43.4894" fill="white"/>
</clipPath>
</defs>
</svg>
