<svg width="45" height="44" viewBox="0 0 45 44" fill="none" xmlns="http://www.w3.org/2000/svg">
<g clip-path="url(#clip0_1_827)">
<path d="M43.8581 43.7521C43.6233 43.9838 43.2762 44.0611 42.9657 43.9499L7.27138 31.2228C6.0313 31.9811 4.45839 32.1587 3.01576 31.5613C0.621114 30.5694 -0.52022 27.8141 0.471669 25.4193C2.8108 19.7725 6.18805 14.718 10.5099 10.3961C14.8318 6.07421 19.8863 2.69688 25.5331 0.357838C26.1196 0.114979 26.7274 -3.8147e-06 27.3259 -3.8147e-06C29.1714 8.01086e-05 30.9261 1.09364 31.6751 2.90201C32.179 4.11871 32.1314 5.42823 31.6494 6.55263L44.0674 42.8624C44.1742 43.1745 44.0929 43.5203 43.8581 43.7521ZM12.676 31.3252L16.4589 32.6739C16.9031 32.2007 17.1195 31.5493 17.0328 30.8905C16.9563 30.3104 16.6587 29.7947 16.1945 29.4385C15.7304 29.0823 15.1556 28.9284 14.5751 29.0046C13.9951 29.081 13.4795 29.3786 13.1233 29.8429C12.7951 30.2706 12.6389 30.7924 12.676 31.3252ZM30.0871 3.55986C29.4579 2.04066 27.7098 1.31664 26.1909 1.94605C15.1875 6.50373 6.61756 15.0737 2.0597 26.0772C1.75489 26.813 1.75489 27.6235 2.0597 28.3595C2.36452 29.0954 2.93764 29.6685 3.67352 29.9733C4.4094 30.2781 5.21996 30.2781 5.95585 29.9733C6.69173 29.6685 7.26484 29.0954 7.56966 28.3595C9.52053 23.6495 12.3376 19.4336 15.9425 15.8287C19.5474 12.2238 23.7633 9.40687 28.4732 7.45592C29.9924 6.82677 30.7165 5.07889 30.0871 3.55986ZM37.7221 29.6202C37.6443 29.6221 37.5664 29.6265 37.4887 29.6367C36.9088 29.7131 36.3931 30.0108 36.037 30.4749C35.6808 30.9391 35.5267 31.5142 35.603 32.0942C35.7607 33.2917 36.8629 34.1375 38.0607 33.98C38.4303 33.9314 38.7772 33.7881 39.0731 33.57L37.7221 29.6202ZM39.6443 35.241C39.2256 35.469 38.7656 35.6208 38.285 35.6841C36.1477 35.9662 34.1803 34.4557 33.899 32.3185C33.7627 31.2833 34.0377 30.257 34.6734 29.4285C35.2857 28.6306 36.1622 28.1093 37.151 27.9503L35.4429 22.9557L33.4786 24.4631C33.1021 24.7518 32.5625 24.681 32.2736 24.3044C31.9847 23.9279 32.0558 23.3884 32.4323 23.0995L34.8561 21.2397L30.4137 8.24981C30.0411 8.57379 29.612 8.84484 29.1313 9.04396C20.0237 12.8165 12.9304 19.9098 9.15804 29.0173C9.0269 29.334 8.86397 29.6281 8.67602 29.899L10.9773 30.7195C11.0577 30.0262 11.3238 29.3648 11.7598 28.7967C12.3954 27.9682 13.3157 27.437 14.3509 27.3007C14.5243 27.2779 14.6972 27.2665 14.8693 27.2665C15.7242 27.2665 16.5512 27.5458 17.2409 28.075C18.0694 28.7107 18.6006 29.6308 18.737 30.6662C18.8593 31.5956 18.6423 32.5162 18.1553 33.2788L28.8379 37.0877L29.2428 36.1103C29.38 35.7793 29.6999 35.5795 30.0371 35.5795C30.1467 35.5795 30.2581 35.6007 30.3657 35.6452C30.8041 35.8268 31.0123 36.3296 30.8307 36.768L30.459 37.6656L41.8645 41.7324L39.6443 35.241Z" fill="#363853"/>
<path d="M9.39402 20.9451C9.39144 20.9492 9.38431 20.9601 9.38156 20.964C9.11842 21.3587 8.58587 21.4647 8.19099 21.2018C7.79679 20.9394 7.68988 20.4066 7.95079 20.0118C8.11536 19.7589 8.3907 19.621 8.67198 19.621C8.83113 19.621 8.99209 19.6652 9.13578 19.7576C9.53505 20.0142 9.65063 20.5459 9.39402 20.9451Z" fill="#363853"/>
<path d="M8.08709 23.08C7.24963 24.5483 6.49682 26.0851 5.84962 27.6473C5.66804 28.0859 5.16505 28.2939 4.72685 28.1123C4.28831 27.9307 4.08017 27.428 4.26184 26.9896C4.93645 25.361 5.72123 23.7591 6.59418 22.2285C6.75274 21.9506 7.04286 21.7947 7.34141 21.7947C7.48578 21.7947 7.63213 21.8312 7.76637 21.9077C8.17861 22.1429 8.3223 22.6678 8.08709 23.08Z" fill="#363853"/>
<path d="M27.0054 33.0011C26.8351 33.0236 26.6621 33.0349 26.4912 33.0349C24.539 33.0349 22.8744 31.5735 22.6193 29.6357C22.3379 27.4986 23.8476 25.5309 25.9847 25.2496C26.155 25.2271 26.328 25.2157 26.4989 25.2157C28.451 25.2157 30.1156 26.6771 30.3708 28.6152C30.6521 30.7522 29.1424 32.7197 27.0054 33.0011ZM28.6668 28.8395C28.5238 27.7535 27.5918 26.9346 26.4989 26.9346C26.4028 26.9346 26.3053 26.9409 26.2091 26.9536C25.0115 27.1113 24.1658 28.2138 24.3234 29.4114C24.4664 30.4973 25.3983 31.3161 26.4912 31.3161C26.5873 31.3161 26.6848 31.3097 26.781 31.297C27.9785 31.1392 28.8244 30.0368 28.6668 28.8395Z" fill="#363853"/>
<path d="M26.7818 22.3116C26.6114 22.3341 26.4385 22.3455 26.2676 22.3455C24.3154 22.3455 22.6508 20.8841 22.3957 18.9461C22.2593 17.9108 22.5343 16.8846 23.17 16.056C23.8056 15.2276 24.7258 14.6963 25.7611 14.56C25.9314 14.5375 26.1043 14.5263 26.275 14.5263C28.2273 14.5263 29.8919 15.9876 30.1471 17.9257C30.4285 20.0626 28.9188 22.0301 26.7818 22.3116ZM28.4432 18.1499C28.3002 17.0639 27.3681 16.245 26.2752 16.245C26.1792 16.245 26.0817 16.2515 25.9856 16.2641C25.4055 16.3406 24.8899 16.6383 24.5337 17.1024C24.1775 17.5666 24.0234 18.1417 24.0998 18.7218C24.2428 19.8077 25.1748 20.6266 26.2676 20.6266C26.3637 20.6266 26.4612 20.6203 26.5574 20.6075C27.7548 20.4498 28.6007 19.3474 28.4432 18.1499Z" fill="#363853"/>
<path d="M21.1138 25.8719L18.4724 26.2197C18.0021 26.2822 17.5702 25.9505 17.5082 25.48C17.4462 25.0094 17.7774 24.5777 18.2479 24.5158L20.8893 24.168C20.9274 24.1629 20.9652 24.1605 21.0026 24.1605C21.4272 24.1605 21.7966 24.4753 21.8534 24.9077C21.9156 25.3782 21.5844 25.81 21.1138 25.8719Z" fill="#363853"/>
<path d="M19.7744 19.5299L19.5411 21.3022C19.4792 21.7728 19.0476 22.1042 18.577 22.0421C18.1064 21.9801 17.7752 21.5485 17.8372 21.0779L18.0705 19.3056C18.1274 18.8731 18.4966 18.5583 18.9213 18.5583C18.9587 18.5583 18.9965 18.5607 19.0345 18.5657C19.5051 18.6277 19.8363 19.0593 19.7744 19.5299Z" fill="#363853"/>
</g>
<defs>
<clipPath id="clip0_1_827">
<rect width="44" height="44" fill="white" transform="matrix(1 0 0 -1 0.112793 44)"/>
</clipPath>
</defs>
</svg>
