<svg width="8" height="8" viewBox="0 0 16 16" fill="none" xmlns="http://www.w3.org/2000/svg">
<path d="M0.0229654 6.16426C0.0780897 5.99454 0.224746 5.87085 0.401307 5.84523L5.36138 5.12445L7.57965 0.629872C7.65859 0.469872 7.82156 0.368591 7.99996 0.368591C8.1784 0.368591 8.34134 0.469872 8.42031 0.629872L10.6387 5.12445L15.5987 5.84523C15.7752 5.87085 15.9219 5.99454 15.977 6.16422C16.0322 6.33394 15.9862 6.52022 15.8584 6.64475L12.2694 10.1433L13.1165 15.0834C13.1467 15.2593 13.0744 15.4369 12.9301 15.5418C12.8484 15.6012 12.7517 15.6313 12.6545 15.6313C12.5799 15.6313 12.505 15.6136 12.4364 15.5775L8 13.2451L3.56373 15.5775C3.40576 15.6605 3.21442 15.6467 3.07008 15.5418C2.92574 15.4369 2.85339 15.2592 2.88355 15.0833L3.73095 10.1433L0.141559 6.64472C0.0138092 6.52022 -0.0322227 6.33394 0.0229654 6.16426Z" fill="#FFB800"/>
</svg>
