<svg width="34" height="34" viewBox="0 0 34 34" fill="none" xmlns="http://www.w3.org/2000/svg">
<g clip-path="url(#clip0_1_690)">
<path d="M31.7543 12.881L32.7503 11.8851C33.0383 11.5972 33.1969 11.2144 33.1969 10.8072C33.1969 10.4001 33.0383 10.0173 32.7504 9.72939L31.6096 8.5886C31.3217 8.30073 30.9389 8.14216 30.5318 8.14216C30.1246 8.14216 29.7418 8.30073 29.454 8.5886L28.4579 9.58463C27.1434 8.67918 25.6517 8.01353 24.046 7.65141V6.17926H24.6521C25.4727 6.17926 26.1403 5.51161 26.1403 4.69103V2.62062C26.1403 1.79997 25.4727 1.13232 24.6521 1.13232H17.8004C16.9798 1.13232 16.3122 1.79997 16.3122 2.62062V4.69096C16.3122 5.51154 16.9798 6.17919 17.8004 6.17919H18.4064V7.65546C16.8081 8.01857 15.3231 8.6827 14.0137 9.58456L13.0177 8.58854C12.7299 8.30067 12.347 8.14209 11.94 8.14209C11.5327 8.14209 11.15 8.30067 10.8621 8.58854L9.72132 9.72933C9.12706 10.3237 9.12706 11.2907 9.72132 11.885L9.8979 12.0616H5.19077C4.82407 12.0616 4.52671 12.3589 4.52671 12.7256C4.52671 13.0924 4.82407 13.3897 5.19077 13.3897H10.3845C9.88966 14.1866 9.48 15.0416 9.16863 15.9422H0.664061C0.297367 15.9422 0 16.2395 0 16.6062C0 16.973 0.297367 17.2703 0.664061 17.2703H8.78898C8.60165 18.094 8.4942 18.9476 8.47521 19.8227H4.24999C3.8833 19.8227 3.58593 20.12 3.58593 20.4868C3.58593 20.8535 3.8833 21.1509 4.24999 21.1509H8.51492C8.58671 22.0297 8.74801 22.8834 8.98946 23.7033H3.32031C2.95361 23.7033 2.65624 24.0006 2.65624 24.3674C2.65624 24.7341 2.95361 25.0314 3.32031 25.0314H9.46181C11.3938 29.6298 15.9436 32.8673 21.2358 32.8673C28.274 32.8673 34 27.1413 34 20.1032C34 17.4244 33.1699 14.9362 31.7543 12.881ZM30.3931 9.52772C30.4406 9.48024 30.4947 9.47028 30.5318 9.47028C30.5689 9.47028 30.623 9.48024 30.6705 9.52772L31.8113 10.6685C31.8588 10.716 31.8688 10.7702 31.8688 10.8072C31.8688 10.8443 31.8588 10.8985 31.8112 10.946L30.9382 11.819C30.5031 11.3102 30.0288 10.8359 29.52 10.4008L30.3931 9.52772ZM17.6403 4.69103V2.62062C17.6403 2.5323 17.7122 2.46045 17.8004 2.46045H24.6521C24.7403 2.46045 24.8122 2.5323 24.8122 2.62062V4.69096C24.8122 4.77928 24.7403 4.85107 24.6521 4.85107H23.382H19.0704H17.8004C17.7122 4.85113 17.6403 4.77928 17.6403 4.69103ZM19.7345 6.17926H22.7179V7.4255C22.2315 7.36899 21.7372 7.33897 21.2359 7.33897C20.7279 7.33897 20.2272 7.36972 19.7346 7.42769L19.7345 6.17926ZM10.6604 10.6684L11.8012 9.52765C11.8486 9.48017 11.9028 9.47021 11.9399 9.47021C11.9769 9.47021 12.0311 9.48017 12.0786 9.52765L12.9516 10.4008C12.4428 10.8359 11.9686 11.3101 11.5335 11.8189L10.6604 10.9459C10.5839 10.8695 10.5839 10.7449 10.6604 10.6684ZM21.2358 31.5392C14.93 31.5392 9.79975 26.409 9.79975 20.1031C9.79975 13.7972 14.93 8.66703 21.2358 8.66703C27.5417 8.66703 32.6719 13.7972 32.6719 20.1031C32.6719 26.409 27.5417 31.5392 21.2358 31.5392Z" fill="#FF6838"/>
<path d="M25.6188 14.7809L22.4797 17.92C22.1126 17.71 21.6881 17.5893 21.2358 17.5893C19.8497 17.5893 18.722 18.7169 18.722 20.1031C18.722 21.4892 19.8497 22.6168 21.2358 22.6168C22.6219 22.6168 23.7495 21.4892 23.7495 20.1031C23.7495 19.6507 23.6288 19.2263 23.4188 18.8592L26.5579 15.7201C26.8172 15.4608 26.8172 15.0403 26.5579 14.7809C26.2985 14.5216 25.8782 14.5216 25.6188 14.7809ZM21.2358 21.2888C20.582 21.2888 20.0502 20.7569 20.0502 20.1032C20.0502 19.4494 20.5821 18.9175 21.2358 18.9175C21.8895 18.9175 22.4214 19.4494 22.4214 20.1032C22.4214 20.7569 21.8896 21.2888 21.2358 21.2888Z" fill="#FF6838"/>
<path d="M21.2361 11.4937C21.4107 11.4937 21.5821 11.4226 21.7055 11.2991C21.829 11.1756 21.9001 11.0042 21.9001 10.8296C21.9001 10.6549 21.8291 10.4836 21.7055 10.3601C21.5821 10.2366 21.4107 10.1655 21.2361 10.1655C21.0614 10.1655 20.8901 10.2366 20.7666 10.3601C20.6431 10.4836 20.572 10.6549 20.572 10.8296C20.572 11.0049 20.643 11.1756 20.7666 11.2991C20.8902 11.4226 21.0614 11.4937 21.2361 11.4937Z" fill="#FF6838"/>
<path d="M21.2361 28.7124C21.0614 28.7124 20.8901 28.7835 20.7666 28.907C20.6431 29.0305 20.572 29.2018 20.572 29.3765C20.572 29.5518 20.643 29.7224 20.7666 29.846C20.8901 29.9701 21.0614 30.0405 21.2361 30.0405C21.4107 30.0405 21.5821 29.9701 21.7055 29.846C21.829 29.7224 21.9001 29.5511 21.9001 29.3765C21.9001 29.2018 21.8291 29.0305 21.7055 28.907C21.5821 28.7835 21.4107 28.7124 21.2361 28.7124Z" fill="#FF6838"/>
<path d="M14.6784 12.8813C14.5038 12.8813 14.3324 12.9524 14.2089 13.0759C14.0854 13.1994 14.0143 13.3708 14.0143 13.5454C14.0143 13.7207 14.0853 13.8914 14.2089 14.0156C14.3324 14.1391 14.5038 14.2095 14.6784 14.2095C14.8531 14.2095 15.0244 14.1391 15.1478 14.0156C15.2713 13.8914 15.3425 13.7207 15.3425 13.5454C15.3425 13.3708 15.2714 13.2001 15.1478 13.0759C15.0244 12.9524 14.8531 12.8813 14.6784 12.8813Z" fill="#FF6838"/>
<path d="M27.7937 25.9966C27.6183 25.9966 27.4477 26.0676 27.3235 26.1912C27.2 26.3147 27.1296 26.486 27.1296 26.6606C27.1296 26.8353 27.2 27.0066 27.3235 27.1301C27.4477 27.2537 27.6183 27.3247 27.7937 27.3247C27.9683 27.3247 28.1397 27.2537 28.2631 27.1301C28.3866 27.0066 28.4578 26.8353 28.4578 26.6606C28.4578 26.486 28.3867 26.3147 28.2631 26.1912C28.1397 26.0676 27.9683 25.9966 27.7937 25.9966Z" fill="#FF6838"/>
<path d="M14.6784 25.9966C14.5038 25.9966 14.3324 26.0676 14.2089 26.1912C14.0854 26.3147 14.0143 26.486 14.0143 26.6606C14.0143 26.8353 14.0853 27.0066 14.2089 27.1301C14.3325 27.2537 14.5038 27.3247 14.6784 27.3247C14.8531 27.3247 15.0244 27.2537 15.1478 27.1301C15.2713 27.0066 15.3425 26.8353 15.3425 26.6606C15.3425 26.486 15.2714 26.3147 15.1478 26.1912C15.0244 26.0676 14.8531 25.9966 14.6784 25.9966Z" fill="#FF6838"/>
<path d="M11.9625 19.439C11.7872 19.439 11.6165 19.51 11.493 19.6335C11.3689 19.7571 11.2984 19.9284 11.2984 20.103C11.2984 20.2777 11.3689 20.449 11.493 20.5725C11.6165 20.6967 11.7872 20.7671 11.9625 20.7671C12.1371 20.7671 12.3084 20.6967 12.432 20.5725C12.5554 20.449 12.6265 20.2777 12.6265 20.103C12.6265 19.9284 12.5555 19.7571 12.432 19.6335C12.3084 19.51 12.1371 19.439 11.9625 19.439Z" fill="#FF6838"/>
<path d="M30.9791 19.6335C30.8556 19.51 30.6842 19.439 30.5096 19.439C30.3343 19.439 30.1636 19.51 30.0402 19.6335C29.9166 19.7571 29.8455 19.9284 29.8455 20.103C29.8455 20.2783 29.9166 20.449 30.0402 20.5725C30.1636 20.696 30.3349 20.7671 30.5096 20.7671C30.6842 20.7671 30.8556 20.696 30.9791 20.5725C31.1026 20.449 31.1736 20.2777 31.1736 20.103C31.1736 19.9284 31.1026 19.7571 30.9791 19.6335Z" fill="#FF6838"/>
<path d="M0.664062 23.7036C0.489414 23.7036 0.318086 23.774 0.19457 23.8975C0.0710547 24.0217 0 24.1924 0 24.3677C0 24.5423 0.0709883 24.713 0.19457 24.8372C0.318086 24.9607 0.489414 25.0317 0.664062 25.0317C0.838711 25.0317 1.01004 24.9607 1.13349 24.8372C1.257 24.7137 1.32812 24.5423 1.32812 24.3677C1.32812 24.1924 1.25707 24.021 1.13349 23.8975C1.01004 23.774 0.838711 23.7036 0.664062 23.7036Z" fill="#FF6838"/>
<path d="M30.3142 18.0869C30.6656 17.9821 30.8657 17.6123 30.761 17.2608C30.2915 15.6855 29.425 14.2359 28.2553 13.0686C27.0853 11.9012 25.6336 11.0378 24.057 10.5719C23.7054 10.4679 23.3359 10.6687 23.232 11.0204C23.128 11.3721 23.3288 11.7415 23.6806 11.8455C26.4825 12.6736 28.6536 14.8399 29.4882 17.6401C29.574 17.9283 29.8382 18.1146 30.1243 18.1146C30.187 18.1147 30.2509 18.1056 30.3142 18.0869Z" fill="#FF6838"/>
</g>
<defs>
<clipPath id="clip0_1_690">
<rect width="34" height="34" fill="white"/>
</clipPath>
</defs>
</svg>
