<svg width="22" height="22" viewBox="0 0 22 22" fill="none" xmlns="http://www.w3.org/2000/svg">
<g opacity="0.9">
<path d="M11.5747 2.5401V1.58126C11.5747 1.41919 11.5103 1.26375 11.3957 1.14914C11.2811 1.03454 11.1257 0.970154 10.9636 0.970154C10.8015 0.970154 10.6461 1.03454 10.5315 1.14914C10.4169 1.26375 10.3525 1.41919 10.3525 1.58126V2.5456C5.55038 2.87926 1.74438 6.88968 1.74438 11.7752C1.74438 16.8777 5.89658 21.0299 11 21.0299C16.1034 21.0299 20.2555 16.8777 20.2555 11.7752C20.2555 6.86524 16.4114 2.83801 11.5747 2.5401V2.5401ZM11 19.8077C6.57033 19.8077 2.96661 16.2039 2.96661 11.7752C2.96661 7.34588 6.57033 3.74246 11 3.74246C15.4296 3.74246 19.0333 7.34588 19.0333 11.7752C19.0333 16.2039 15.4296 19.8077 11 19.8077Z" fill="#31352B"/>
<path d="M7.86287 17.3216C5.8679 16.1901 4.62857 14.0644 4.62857 11.7749C4.62857 11.6056 4.49198 11.4693 4.32301 11.4693C4.15404 11.4693 4.01746 11.6056 4.01746 11.7749C4.01746 14.2841 5.37565 16.6133 7.56159 17.8536C7.63214 17.8935 7.71566 17.9038 7.7938 17.8822C7.87193 17.8606 7.93827 17.8088 7.97822 17.7382C8.01817 17.6677 8.02846 17.5842 8.00683 17.506C7.9852 17.4279 7.93342 17.3616 7.86287 17.3216Z" fill="#31352B"/>
<path d="M9.52917 18.1598C9.41085 18.1289 9.29337 18.0949 9.17687 18.0578C9.10015 18.0348 9.01748 18.0429 8.94666 18.0802C8.87583 18.1176 8.82251 18.1813 8.79816 18.2576C8.77381 18.3339 8.78038 18.4167 8.81647 18.4882C8.85255 18.5596 8.91525 18.6141 8.99109 18.6398C9.1182 18.6808 9.24592 18.7175 9.3764 18.7508C9.45484 18.771 9.53811 18.7593 9.6079 18.7181C9.67769 18.677 9.72829 18.6098 9.74856 18.5314C9.75862 18.4926 9.76092 18.4522 9.75533 18.4125C9.74974 18.3728 9.73637 18.3346 9.71599 18.3001C9.69561 18.2655 9.66861 18.2354 9.63656 18.2113C9.6045 18.1872 9.56801 18.1697 9.52917 18.1598Z" fill="#31352B"/>
<path d="M18.8853 5.72794C19.0001 5.84236 19.1556 5.90652 19.3176 5.90629C19.4797 5.90606 19.635 5.84146 19.7494 5.72671C19.8638 5.61196 19.928 5.45646 19.9278 5.2944C19.9275 5.13235 19.8629 4.97703 19.7482 4.8626L18.1614 3.27983C18.1047 3.22311 18.0372 3.17814 17.9631 3.1475C17.8889 3.11686 17.8094 3.10114 17.7291 3.10126C17.6489 3.10137 17.5694 3.11731 17.4953 3.14816C17.4212 3.17901 17.354 3.22417 17.2973 3.28105C17.183 3.39585 17.1189 3.55134 17.1191 3.71336C17.1194 3.87538 17.1839 4.03068 17.2986 4.14516L18.8853 5.72794V5.72794Z" fill="#31352B"/>
<path d="M11.5745 11.6613V6.77572C11.5745 6.61365 11.5101 6.45821 11.3955 6.3436C11.2809 6.229 11.1255 6.16461 10.9634 6.16461C10.8013 6.16461 10.6459 6.229 10.5313 6.3436C10.4167 6.45821 10.3523 6.61365 10.3523 6.77572V11.9253C10.3523 12.0936 10.44 12.254 10.5622 12.3692L12.3506 14.0406C12.4689 14.1518 12.6195 14.2074 12.7702 14.2074C12.852 14.2076 12.933 14.1906 13.0079 14.1575C13.0827 14.1245 13.1499 14.0761 13.205 14.0156C13.4375 13.7699 13.4167 13.3834 13.1713 13.1518L11.5745 11.6613V11.6613Z" fill="#31352B"/>
</g>
</svg>
